<?xml version="1.0" encoding="UTF-8"?>
<svg width="97px" height="24px" viewBox="0 0 97 24" version="1.1" xmlns="http://www.w3.org/2000/svg" xmlns:xlink="http://www.w3.org/1999/xlink">
    <!-- Generator: Sketch 55.2 (78181) - https://sketchapp.com -->
    <title>Group 21</title>
    <desc>Created with Sketch.</desc>
    <g id="approved" stroke="none" stroke-width="1" fill="none" fill-rule="evenodd">
        <g id="04-Repjegy-footer-UI-WD" transform="translate(-935.000000, -787.000000)">
            <g id="Footer-ui" transform="translate(0.000000, -15.000000)">
                <g id="Footer" transform="translate(0.000000, 727.000000)">
                    <g id="Pay_options" transform="translate(652.000000, 74.000000)">
                        <g id="Group-21" transform="translate(283.256471, 1.473684)">
                            <path d="M36.0680467,5.26037583 L30.7301255,5.26037583 C30.3648049,5.26037583 30.0541404,5.52542066 29.9972982,5.88543626 L27.8383871,19.5544577 C27.7955368,19.8240873 28.0045413,20.0672998 28.2786957,20.0672998 L30.8269759,20.0672998 C31.1922964,20.0672998 31.502961,19.802255 31.5598032,19.4413661 L32.1419986,15.754754 C32.198185,15.3938651 32.509724,15.1288203 32.8741701,15.1288203 L34.5641328,15.1288203 C38.0802611,15.1288203 40.1095281,13.4296078 40.6394725,10.0626214 C40.8782098,8.58937388 40.6497478,7.43182222 39.9588962,6.62118674 C39.2002713,5.73108148 37.8546412,5.26037583 36.0680467,5.26037583 M36.6839102,10.2527813 C36.3918287,12.1652959 34.9285789,12.1652959 33.5134264,12.1652959 L32.7080159,12.1652959 L33.2729401,8.5933037 C33.3066082,8.37738168 33.4939688,8.21822378 33.7125927,8.21822378 L34.0816299,8.21822378 C35.0455427,8.21822378 35.9547995,8.21822378 36.4246222,8.76708928 C36.7048981,9.09435634 36.7908173,9.58078129 36.6839102,10.2527813" id="Fill-1" fill="#253B80"></path>
                            <path d="M52.0239624,10.191083 L49.4678117,10.191083 C49.2500623,10.191083 49.0620457,10.3502409 49.0283776,10.5659446 L48.9151305,11.2800811 L48.7365147,11.0211493 C48.1831776,10.2190285 46.9490457,9.9509271 45.7175373,9.9509271 C42.8926978,9.9509271 40.4801831,12.0874417 40.0103603,15.0845879 C39.7661574,16.5792312 40.1135508,18.008814 40.962686,19.0058979 C41.741643,19.9224203 42.855969,20.3042682 44.1821416,20.3042682 C46.4582351,20.3042682 47.7201322,18.8428101 47.7201322,18.8428101 L47.6062292,19.5521435 C47.5633789,19.8235197 47.772602,20.0665138 48.0450073,20.0665138 L50.3473357,20.0665138 C50.7135307,20.0665138 51.0226649,19.801469 51.0803816,19.4407984 L52.461866,10.7039251 C52.5055908,10.4351688 52.2970236,10.191083 52.0239624,10.191083 M48.4610486,15.1592546 C48.2142222,16.6174378 47.0552969,17.5964008 45.5769621,17.5964008 C44.834734,17.5964008 44.2413887,17.3588647 43.8605459,16.9082448 C43.4829824,16.4608998 43.3391278,15.8240499 43.459371,15.1147166 C43.689582,13.6689778 44.868402,12.6579212 46.324,12.6579212 C47.0498313,12.6579212 47.6398972,12.8989505 48.0286105,13.3532819 C48.4179797,13.8121981 48.5725468,14.4529778 48.4610486,15.1592546" id="Fill-3" fill="#253B80"></path>
                            <path d="M65.6375634,10.191083 L63.0689512,10.191083 C62.8238738,10.191083 62.5934442,10.3126893 62.454618,10.5161669 L58.9118177,15.7275509 L57.4100901,10.7194261 C57.3158632,10.4061318 57.0261865,10.191083 56.6982507,10.191083 L54.1742377,10.191083 C53.8675084,10.191083 53.6543501,10.4904047 53.752075,10.7788101 L56.5812869,19.0703033 L53.9212899,22.8202292 C53.7120668,23.1158394 53.9228203,23.5217029 54.2842056,23.5217029 L56.8499757,23.5217029 C57.0933041,23.5217029 57.3213288,23.4031532 57.4594991,23.2038238 L66.002884,10.8886269 C66.2072973,10.5941084 65.9974184,10.191083 65.6375634,10.191083" id="Fill-5" fill="#253B80"></path>
                            <path d="M74.141902,5.26037583 L68.803325,5.26037583 C68.4388789,5.26037583 68.1282144,5.52542066 68.0711535,5.88543626 L65.9122425,19.5544577 C65.8693922,19.8240873 66.0783967,20.0672998 66.350802,20.0672998 L69.0905968,20.0672998 C69.345075,20.0672998 69.5628244,19.8819431 69.6023953,19.6291244 L70.2151981,15.754754 C70.2713845,15.3938651 70.5829235,15.1288203 70.9473696,15.1288203 L72.6362392,15.1288203 C76.1532419,15.1288203 78.1818531,13.4296078 78.7124533,10.0626214 C78.9522838,8.58937388 78.7218542,7.43182222 78.0312213,6.62118674 C77.2732522,5.73108148 75.9284966,5.26037583 74.141902,5.26037583 M74.7577656,10.2527813 C74.4665585,12.1652959 73.0033088,12.1652959 71.5872817,12.1652959 L70.7827458,12.1652959 L71.3485444,8.5933037 C71.3822125,8.37738168 71.5680428,8.21822378 71.787104,8.21822378 L72.1563598,8.21822378 C73.119398,8.21822378 74.0295294,8.21822378 74.4995707,8.76708928 C74.779628,9.09435634 74.8648913,9.58078129 74.7577656,10.2527813" id="Fill-7" fill="#179BD7"></path>
                            <path d="M90.0971837,10.191083 L87.5423448,10.191083 C87.3232837,10.191083 87.1365788,10.3502409 87.1040039,10.5659446 L86.9907567,11.2800811 L86.8112665,11.0211493 C86.2577108,10.2190285 85.0246719,9.9509271 83.7929449,9.9509271 C80.9683241,9.9509271 78.5564652,12.0874417 78.0866424,15.0845879 C77.8430954,16.5792312 78.1889584,18.008814 79.0380936,19.0058979 C79.818581,19.9224203 80.9315953,20.3042682 82.2577678,20.3042682 C84.5336427,20.3042682 85.7957585,18.8428101 85.7957585,18.8428101 L85.6818554,19.5521435 C85.6387865,19.8235197 85.8480096,20.0665138 86.1219453,20.0665138 L88.4238364,20.0665138 C88.7882824,20.0665138 89.098947,19.801469 89.1557892,19.4407984 L90.5381481,10.7039251 C90.5803425,10.4351688 90.3711195,10.191083 90.0971837,10.191083 M86.5340514,15.1592546 C86.288974,16.6174378 85.1282997,17.5964008 83.6501835,17.5964008 C82.9094857,17.5964008 82.3146101,17.3588647 81.9337672,16.9082448 C81.5562037,16.4608998 81.4138796,15.8240499 81.5325924,15.1147166 C81.7645523,13.6689778 82.9416234,12.6579212 84.3972213,12.6579212 C85.1228341,12.6579212 85.7129,12.8989505 86.1018319,13.3532819 C86.4927315,13.8121981 86.6472985,14.4529778 86.5340514,15.1592546" id="Fill-9" fill="#179BD7"></path>
                            <path d="M93.1107393,5.63528109 L90.9199092,19.554283 C90.8768403,19.824131 91.0860634,20.0673435 91.3582501,20.0673435 L93.5611046,20.0673435 C93.927081,20.0673435 94.2377455,19.8022986 94.2939319,19.4414097 L96.4543733,5.7732616 C96.4972236,5.50341365 96.2880005,5.2595462 96.0155951,5.2595462 L93.5492989,5.2595462 C93.3315495,5.26041949 93.1441888,5.41935906 93.1107393,5.63528109" id="Fill-11" fill="#179BD7"></path>
                            <path d="M5.67121333,22.7236865 L6.07938416,20.1343688 L5.17012735,20.1131914 L0.828256653,20.1131914 L3.84548513,1.00703938 C3.85488595,0.949401949 3.8854933,0.895694347 3.92987395,0.857269396 C3.9742546,0.819062768 4.03131544,0.798103704 4.09078114,0.798103704 L11.4118398,0.798103704 C13.8422817,0.798103704 15.5195642,1.30330448 16.3953716,2.30016998 C16.8059473,2.7678191 17.0674215,3.25642729 17.1937861,3.79415828 C17.3264908,4.35852476 17.3288957,5.03270799 17.1992517,5.85513294 L17.1898509,5.91517193 L17.1898509,6.44198674 L17.6004265,6.67428304 C17.9460709,6.85745653 18.2208812,7.0672655 18.4316346,7.30720312 C18.7829632,7.70695361 19.0101135,8.21521092 19.1060894,8.81778402 C19.205126,9.43738635 19.1723324,10.1746651 19.0101135,11.0095345 C18.8227528,11.9697216 18.5199587,12.8061193 18.1109134,13.4903454 C17.7346616,14.1210823 17.255438,14.6439673 16.6865786,15.0493942 C16.1432982,15.4342986 15.4977019,15.7266339 14.7679353,15.9137372 C14.0609056,16.0975657 13.2546206,16.1903532 12.3702869,16.1903532 L11.800553,16.1903532 C11.3930381,16.1903532 10.9973288,16.3368483 10.6866643,16.5994916 C10.3753438,16.8678113 10.1691815,17.23394 10.1059992,17.6345637 L10.0631489,17.8677333 L9.34190865,22.4313513 L9.30911506,22.5990238 C9.30058873,22.6518581 9.2857223,22.6784936 9.26385991,22.6963961 C9.24440239,22.7127704 9.2161999,22.7236865 9.18887192,22.7236865 L5.67121333,22.7236865 Z" id="Fill-13" fill="#253B80"></path>
                            <path d="M17.9891836,5.97588772 C17.9673212,6.11539649 17.9423981,6.25796179 17.9141956,6.40445692 C16.9487524,11.3547259 13.6455639,13.0648546 9.42699707,13.0648546 L7.27901723,13.0648546 C6.76306482,13.0648546 6.32844051,13.4390612 6.24798691,13.9473185 L5.14830868,20.9122776 L4.83676962,22.8865778 C4.78451851,23.2201762 5.04205747,23.5210261 5.37917552,23.5210261 L9.18891564,23.5210261 C9.64015537,23.5210261 10.0231845,23.1935407 10.0942372,22.7492522 L10.1318405,22.5560359 L10.8489269,18.0103205 L10.8950566,17.7607766 C10.9654535,17.3151782 11.349357,16.9876928 11.8003781,16.9876928 L12.3703307,16.9876928 C16.061358,16.9876928 18.9506915,15.4913029 19.7952356,11.1606363 C20.1480946,9.35160702 19.965325,7.84102612 19.0320196,6.77866355 C18.7493389,6.45838285 18.3988848,6.19268304 17.9891836,5.97588772" id="Fill-15" fill="#179BD7"></path>
                            <path d="M16.9791193,5.57367018 C16.8317668,5.53087875 16.6793859,5.49179883 16.5232884,5.45686706 C16.3665351,5.42259025 16.2056279,5.39202495 16.0403482,5.3656078 C15.4609949,5.2721653 14.8265483,5.22762729 14.146628,5.22762729 L8.40840645,5.22762729 C8.26717541,5.22762729 8.13294033,5.25972086 8.01269718,5.31735828 C7.74816226,5.44442261 7.55140075,5.69462144 7.50374074,6.00092943 L6.2831635,13.7219431 L6.24796505,13.947253 C6.32841864,13.4389957 6.76304296,13.0650074 7.27899537,13.0650074 L9.42697521,13.0650074 C13.645542,13.0650074 16.9487306,11.3540055 17.9141737,6.40460975 C17.9430321,6.25811462 17.9672993,6.11533099 17.9891617,5.97582222 C17.7447402,5.84657466 17.4802053,5.7358846 17.1953383,5.64156881 C17.12516,5.61820819 17.0525769,5.59572086 16.9791193,5.57367018" id="Fill-17" fill="#222D65"></path>
                            <path d="M7.50378447,6.00084211 C7.55144448,5.69453411 7.74820599,5.44433528 8.01274091,5.31814425 C8.13363993,5.2602885 8.26721913,5.22841326 8.40845017,5.22841326 L14.1466717,5.22841326 C14.8265921,5.22841326 15.4610386,5.27295127 16.0401733,5.36639376 C16.2056716,5.39281092 16.3665788,5.42315789 16.5233322,5.45765302 C16.6794296,5.4925848 16.8318105,5.53166472 16.979163,5.57445614 C17.0526206,5.5962885 17.1252038,5.61899415 17.1960379,5.64148148 C17.4811235,5.73579727 17.7456584,5.8471423 17.9898613,5.97595322 C18.2771331,4.14661988 17.9876751,2.90108382 16.9970902,1.77322417 C15.9052824,0.531617934 13.9343879,0 11.4125612,0 L4.0915026,0 C3.57620606,0 3.13677202,0.374206628 3.05719292,0.883118908 L0.00782673569,20.1857622 C-0.0522948374,20.5678285 0.24284743,20.9123431 0.62828137,20.9123431 L5.14833054,20.9123431 L6.28320722,13.7220741 L7.50378447,6.00084211 Z" id="Fill-19" fill="#253B80"></path>
                        </g>
                    </g>
                </g>
            </g>
        </g>
    </g>
</svg>